<svg width="180" height="41" viewBox="0 0 180 41" fill="none" xmlns="http://www.w3.org/2000/svg">
<path d="M57.0474 31V13.09H50.9274V10H67.0374V13.09H60.8874V31H57.0474ZM73.0367 31.36C71.5967 31.36 70.2967 31.03 69.1367 30.37C67.9967 29.71 67.0867 28.8 66.4067 27.64C65.7467 26.46 65.4167 25.1 65.4167 23.56C65.4167 22.02 65.7567 20.67 66.4367 19.51C67.1167 18.33 68.0267 17.41 69.1667 16.75C70.3267 16.09 71.6267 15.76 73.0667 15.76C74.4867 15.76 75.7667 16.09 76.9067 16.75C78.0667 17.41 78.9767 18.33 79.6367 19.51C80.3167 20.67 80.6567 22.02 80.6567 23.56C80.6567 25.1 80.3167 26.46 79.6367 27.64C78.9767 28.8 78.0667 29.71 76.9067 30.37C75.7467 31.03 74.4567 31.36 73.0367 31.36ZM73.0367 28.03C74.0367 28.03 74.9067 27.66 75.6467 26.92C76.3867 26.16 76.7567 25.04 76.7567 23.56C76.7567 22.08 76.3867 20.97 75.6467 20.23C74.9067 19.47 74.0467 19.09 73.0667 19.09C72.0467 19.09 71.1667 19.47 70.4267 20.23C69.7067 20.97 69.3467 22.08 69.3467 23.56C69.3467 25.04 69.7067 26.16 70.4267 26.92C71.1667 27.66 72.0367 28.03 73.0367 28.03ZM82.89 37.6V16.12H86.31L86.73 18.25C87.21 17.59 87.84 17.01 88.62 16.51C89.42 16.01 90.45 15.76 91.71 15.76C93.11 15.76 94.36 16.1 95.46 16.78C96.56 17.46 97.43 18.39 98.07 19.57C98.71 20.75 99.03 22.09 99.03 23.59C99.03 25.09 98.71 26.43 98.07 27.61C97.43 28.77 96.56 29.69 95.46 30.37C94.36 31.03 93.11 31.36 91.71 31.36C90.59 31.36 89.61 31.15 88.77 30.73C87.93 30.31 87.25 29.72 86.73 28.96V37.6H82.89ZM90.9 28C92.12 28 93.13 27.59 93.93 26.77C94.73 25.95 95.13 24.89 95.13 23.59C95.13 22.29 94.73 21.22 93.93 20.38C93.13 19.54 92.12 19.12 90.9 19.12C89.66 19.12 88.64 19.54 87.84 20.38C87.06 21.2 86.67 22.26 86.67 23.56C86.67 24.86 87.06 25.93 87.84 26.77C88.64 27.59 89.66 28 90.9 28Z" fill="white"/>
<path d="M106.24 31V13.09H100.12V10H116.23V13.09H110.08V31H106.24ZM116.32 31V16.12H119.74L120.1 18.91C120.64 17.95 121.37 17.19 122.29 16.63C123.23 16.05 124.33 15.76 125.59 15.76V19.81H124.51C123.67 19.81 122.92 19.94 122.26 20.2C121.6 20.46 121.08 20.91 120.7 21.55C120.34 22.19 120.16 23.08 120.16 24.22V31H116.32ZM132.145 31.36C130.865 31.36 129.815 31.16 128.995 30.76C128.175 30.34 127.565 29.79 127.165 29.11C126.765 28.43 126.565 27.68 126.565 26.86C126.565 25.48 127.105 24.36 128.185 23.5C129.265 22.64 130.885 22.21 133.045 22.21H136.825V21.85C136.825 20.83 136.535 20.08 135.955 19.6C135.375 19.12 134.655 18.88 133.795 18.88C133.015 18.88 132.335 19.07 131.755 19.45C131.175 19.81 130.815 20.35 130.675 21.07H126.925C127.025 19.99 127.385 19.05 128.005 18.25C128.645 17.45 129.465 16.84 130.465 16.42C131.465 15.98 132.585 15.76 133.825 15.76C135.945 15.76 137.615 16.29 138.835 17.35C140.055 18.41 140.665 19.91 140.665 21.85V31H137.395L137.035 28.6C136.595 29.4 135.975 30.06 135.175 30.58C134.395 31.1 133.385 31.36 132.145 31.36ZM133.015 28.36C134.115 28.36 134.965 28 135.565 27.28C136.185 26.56 136.575 25.67 136.735 24.61H133.465C132.445 24.61 131.715 24.8 131.275 25.18C130.835 25.54 130.615 25.99 130.615 26.53C130.615 27.11 130.835 27.56 131.275 27.88C131.715 28.2 132.295 28.36 133.015 28.36ZM146.71 31L141.25 16.12H145.27L149.05 27.37L152.83 16.12H156.85L151.36 31H146.71ZM164.569 31.36C163.069 31.36 161.739 31.04 160.579 30.4C159.419 29.76 158.509 28.86 157.849 27.7C157.189 26.54 156.859 25.2 156.859 23.68C156.859 22.14 157.179 20.77 157.819 19.57C158.479 18.37 159.379 17.44 160.519 16.78C161.679 16.1 163.039 15.76 164.599 15.76C166.059 15.76 167.349 16.08 168.469 16.72C169.589 17.36 170.459 18.24 171.079 19.36C171.719 20.46 172.039 21.69 172.039 23.05C172.039 23.27 172.029 23.5 172.009 23.74C172.009 23.98 171.999 24.23 171.979 24.49H160.669C160.749 25.65 161.149 26.56 161.869 27.22C162.609 27.88 163.499 28.21 164.539 28.21C165.319 28.21 165.969 28.04 166.489 27.7C167.029 27.34 167.429 26.88 167.689 26.32H171.589C171.309 27.26 170.839 28.12 170.179 28.9C169.539 29.66 168.739 30.26 167.779 30.7C166.839 31.14 165.769 31.36 164.569 31.36ZM164.599 18.88C163.659 18.88 162.829 19.15 162.109 19.69C161.389 20.21 160.929 21.01 160.729 22.09H168.139C168.079 21.11 167.719 20.33 167.059 19.75C166.399 19.17 165.579 18.88 164.599 18.88ZM174.069 31V9.4H177.909V31H174.069Z" fill="#3AACBC"/>
<path d="M25.1571 9.84842C25.1293 9.9039 25.1015 9.95937 25.0458 10.0426C24.8511 10.32 24.6286 10.6251 24.4061 10.958C22.1529 14.0369 17.9527 18.9466 11.9721 18.9466C11.4714 18.9466 10.9429 18.9188 10.4144 18.8356C-2.52022 17.0604 2.09731 9.3214 2.51455 8.65568C2.51455 8.65568 2.51455 8.62794 2.54237 8.62794C2.54237 8.62794 3.59939 7.21329 5.60217 5.82637C9.21831 3.30219 15.9221 0.972177 24.7399 7.93448C25.2962 8.40603 25.4631 9.21044 25.1571 9.84842Z" fill="#FFCB68"/>
<path d="M28.3282 16.6443C28.3282 20.6663 26.687 24.2446 24.0166 26.8242C23.1265 27.7119 22.0973 28.4608 20.9847 29.071C18.7037 30.3193 16.0333 30.9572 13.1961 30.7631C7.99439 30.4025 3.54376 27.2126 1.4019 22.719C0.817755 21.4985 0.400509 20.1948 0.177978 18.8356C0.122345 18.475 0.0667119 18.0867 0.0388955 17.7261C-0.211452 14.342 0.762122 11.2076 2.51456 8.65567C2.51456 8.65567 2.51456 8.62793 2.54237 8.62793C2.54237 8.62793 2.54237 8.62793 2.54237 8.65567C3.32123 13.4544 7.02081 17.421 11.9721 18.9466C13.3908 19.3904 14.9485 19.64 16.534 19.64C20.4283 19.64 23.961 18.1976 26.5201 15.8954C27.2155 15.2851 28.3282 15.7289 28.3282 16.6443Z" fill="#FAB32A"/>
<path d="M25.1571 9.84836C25.1293 9.90384 25.1015 9.95931 25.0459 10.0425C24.8511 10.3199 24.6286 10.625 24.4061 10.9579C17.5911 7.01906 11.6105 5.68762 6.52012 6.96358C4.99022 7.35192 3.68285 7.96216 2.54238 8.62788C2.54238 8.62788 2.51456 8.62788 2.51456 8.65562C2.51456 8.65562 2.51456 8.62788 2.54238 8.62788C2.54238 8.62788 3.5994 7.21323 5.60218 5.82631C5.7969 5.77084 5.99161 5.71536 6.18633 5.65988C11.6383 4.30071 18.0083 5.68762 25.1571 9.84836Z" fill="#102E46"/>
<path d="M24 27C23.1099 27.8876 22.6127 28.3898 21.5 29C19.9145 29.3329 17.7023 29.5704 16.0333 29.5704C14.3922 29.5704 12.6954 29.3762 11.0264 28.9324C7.3268 27.9893 4.12791 25.909 1.4019 22.7191C0.817756 21.4986 0.40051 20.1949 0.177979 18.8357C3.15433 23.5235 6.90955 26.4637 11.3602 27.6287C15.6995 28.7937 20.1613 28.3037 24 27Z" fill="#102E46"/>
<path d="M27.5772 2.30364C28.1613 2.94162 28.6342 3.55186 28.6342 3.55186C28.6342 3.55186 28.4951 4.10663 28.3004 4.82782C28.1891 4.71687 28.1057 4.63366 28.0222 4.60592C27.8553 4.60592 27.6884 4.80009 27.7162 4.93878C27.744 5.04973 27.9666 5.2439 28.1613 5.35485C28.0778 5.65997 27.9944 5.99283 27.9109 6.29795C27.7997 6.187 27.7162 6.10378 27.6328 6.10378C27.4659 6.10378 27.299 6.29795 27.3268 6.43664C27.3546 6.5476 27.5772 6.74176 27.7719 6.85272C27.4937 7.98999 27.2434 9.0163 27.2712 9.09952C27.3268 9.29368 27.605 9.5988 27.6606 9.57107C27.7162 9.54333 28.1057 8.51701 28.4951 7.62939C28.6064 7.7126 28.6898 7.76808 28.7176 7.74034C28.7454 7.7126 28.6898 7.60165 28.5785 7.46296C28.6064 7.40748 28.6342 7.32427 28.662 7.26879C28.7454 7.35201 28.8289 7.37974 28.8567 7.35201C28.8845 7.32427 28.8289 7.24105 28.7454 7.10236C28.9123 6.74176 29.0236 6.43664 29.0792 6.38117L29.1071 6.35343C29.2183 6.43664 29.274 6.46438 29.3018 6.46438C29.3296 6.43664 29.274 6.35343 29.1905 6.24247C29.2183 6.187 29.274 6.13152 29.3018 6.07605C29.3852 6.15926 29.4687 6.187 29.4965 6.15926C29.5243 6.13152 29.4687 6.04831 29.413 5.93735C29.719 5.52128 30.1084 5.02199 30.1084 5.02199C30.1084 5.02199 31.8609 6.71403 32.5007 7.1301C33.1404 7.54617 34.3644 8.46154 34.4756 8.35058C34.5869 8.23963 33.6968 6.96367 33.3073 6.32569C32.9179 5.68771 31.3046 3.85698 31.3046 3.85698C31.3046 3.85698 31.8331 3.49639 32.2503 3.219C32.3616 3.30222 32.445 3.3577 32.445 3.32996C32.4728 3.30222 32.445 3.24674 32.3616 3.13579C32.4172 3.08031 32.4728 3.05257 32.5285 3.02484C32.6397 3.10805 32.7232 3.16353 32.751 3.13579C32.7788 3.10805 32.7232 3.02484 32.6676 2.94162L32.6954 2.91388C32.7788 2.85841 33.057 2.74745 33.4464 2.58102C33.5577 2.69198 33.6689 2.74745 33.6689 2.71972C33.6968 2.69198 33.6689 2.6365 33.5855 2.52555C33.6411 2.49781 33.7246 2.47007 33.7802 2.44233C33.9193 2.55329 34.0306 2.6365 34.0584 2.60876C34.0862 2.58102 34.0306 2.49781 33.9471 2.38686C34.8372 2.054 35.8943 1.66566 35.9221 1.63792C35.9499 1.55471 35.6717 1.30506 35.477 1.22185C35.3936 1.19411 34.3644 1.38828 33.1961 1.63792C33.0848 1.44376 32.8901 1.19411 32.7788 1.16637C32.6397 1.13863 32.4172 1.30506 32.4172 1.47149C32.4172 1.52697 32.5007 1.63792 32.6119 1.74888C32.2781 1.83209 31.9721 1.88757 31.6662 1.94304C31.5549 1.74888 31.3602 1.49923 31.2489 1.47149C31.1098 1.44376 30.8873 1.61018 30.8873 1.77661C30.8873 1.83209 30.9708 1.94304 31.082 2.054C30.331 2.22043 29.7746 2.33138 29.7746 2.33138C29.7746 2.33138 29.1627 1.80435 28.5785 1.22185C27.9666 0.639345 27.5493 0.972205 27.4659 1.08316C27.3824 1.27733 27.0208 1.6934 27.5772 2.30364Z" fill="white"/>
<path d="M33.1126 7.46291C33.0292 7.40743 32.9735 7.35196 32.8901 7.32422C32.751 8.10089 32.5563 9.43233 32.6119 9.57102C32.6675 9.73745 32.9457 9.93162 32.9457 9.93162L33.9749 8.07315C33.7524 7.90672 33.4742 7.71255 33.1126 7.46291Z" fill="white"/>
<path d="M34.114 7.96225L36.0055 7.01915C36.0055 7.01915 35.8386 6.74177 35.6717 6.65855C35.5605 6.60308 34.1975 6.76951 33.4186 6.85272C33.4742 6.93594 33.5021 6.99141 33.5577 7.07463C33.8359 7.46296 34.0027 7.74034 34.114 7.96225Z" fill="white"/>
<path d="M34.4478 27.268C34.2253 27.379 34.0027 27.1016 34.1696 26.9074C37.0347 23.5511 38.3977 19.4736 38.9262 15.5347C39.1209 14.0091 38.8984 12.4558 38.2308 11.0689L38.203 11.0134C37.5632 9.68197 35.8386 9.37685 34.7538 10.3754C34.0027 11.0966 33.3073 11.7069 32.6675 12.2062C32.0834 12.6777 31.7774 13.4266 31.8887 14.1756C32.1668 15.7844 32.1947 17.4487 31.9721 19.113C30.6926 28.8769 21.4575 35.3953 11.9165 33.5646C7.15989 32.6493 3.26559 29.8477 0.817749 26.103C0.706483 25.9089 0.428319 26.0475 0.483952 26.2695C2.79271 32.9266 8.49508 38.1969 15.9221 39.6393C20.4005 40.4992 24.8511 39.8057 28.662 37.9473C28.8567 37.864 28.8011 37.5867 28.5785 37.5867C28.2169 37.5589 27.8831 37.5312 27.6328 37.4757C27.3824 37.4202 27.3824 37.0874 27.6049 37.0319C30.1362 36.3939 32.3894 35.2567 34.3922 33.8143C37.0625 31.0682 38.9819 27.5454 39.7607 23.5234C39.8442 23.0518 39.9276 22.608 39.9833 22.1365C40.0111 21.9978 39.8164 21.9423 39.7329 22.0532C37.6467 25.3818 35.5883 26.741 34.4478 27.268Z" fill="#3AACBC"/>
</svg>
