<?xml version="1.0" encoding="UTF-8"?>
<svg xmlns="http://www.w3.org/2000/svg" width="24" height="24" viewBox="0 0 24 24" fill="">
  <path d="M23.7656 7.03028C23.7656 7.03028 23.6953 6.71513 23.5547 6.08483C23.4141 5.45452 23.1641 4.95351 22.8047 4.5818C22.3516 4.08079 21.8906 3.78988 21.4219 3.70907C20.9688 3.6121 20.625 3.54745 20.3906 3.51513C19.5625 3.45048 18.6562 3.402 17.6719 3.36967C16.6875 3.33735 15.7734 3.31311 14.9297 3.29695C14.1016 3.28079 13.4062 3.27271 12.8438 3.27271C12.2812 3.27271 12 3.27271 12 3.27271C12 3.27271 11.7188 3.27271 11.1562 3.27271C10.5938 3.27271 9.89062 3.28079 9.04688 3.29695C8.21875 3.31311 7.3125 3.33735 6.32812 3.36967C5.34375 3.402 4.4375 3.45048 3.60938 3.51513C3.375 3.54745 3.02344 3.6121 2.55469 3.70907C2.10156 3.78988 1.64844 4.08079 1.19531 4.5818C0.835938 4.95351 0.585938 5.45452 0.445312 6.08483C0.304688 6.71513 0.234375 7.03028 0.234375 7.03028C0.234375 7.03028 0.195312 7.45048 0.117188 8.29089C0.0390625 9.13129 0 10.0525 0 11.0545V12.9454C0 13.9475 0.0390625 14.8687 0.117188 15.7091C0.195312 16.5333 0.234375 16.9454 0.234375 16.9454C0.234375 16.9454 0.304688 17.2687 0.445312 17.9151C0.585938 18.5454 0.835938 19.0464 1.19531 19.4182C1.64844 19.9192 2.13281 20.2101 2.64844 20.2909C3.17969 20.3717 3.57812 20.4363 3.84375 20.4848C4.32812 20.5333 5.02344 20.5737 5.92969 20.606C6.83594 20.6384 7.73438 20.6626 8.625 20.6788C9.53125 20.6949 10.3203 20.7111 10.9922 20.7272C11.6641 20.7272 12 20.7272 12 20.7272C12 20.7272 12.2812 20.7272 12.8438 20.7272C13.4062 20.7272 14.1016 20.7192 14.9297 20.703C15.7734 20.6868 16.6875 20.6626 17.6719 20.6303C18.6562 20.5818 19.5625 20.5252 20.3906 20.4606C20.625 20.4444 20.9688 20.3959 21.4219 20.3151C21.8906 20.2182 22.3516 19.9192 22.8047 19.4182C23.1641 19.0464 23.4141 18.5454 23.5547 17.9151C23.6953 17.2687 23.7656 16.9454 23.7656 16.9454C23.7656 16.9454 23.8047 16.5333 23.8828 15.7091C23.9609 14.8687 24 13.9475 24 12.9454V11.0545C24 10.0525 23.9609 9.13129 23.8828 8.29089C23.8047 7.45048 23.7656 7.03028 23.7656 7.03028ZM9.51562 15.2242V8.2424L16.0078 11.7333L9.51562 15.2242Z"></path>
</svg>
